<?xml version="1.0" encoding="iso-8859-1"?>
<!-- Uploaded to: SVG Repo, www.svgrepo.com, Generator: SVG Repo Mixer Tools -->
<svg height="800px" width="800px" version="1.1" id="Layer_1" xmlns="http://www.w3.org/2000/svg" xmlns:xlink="http://www.w3.org/1999/xlink" 
	 viewBox="0 0 512 512" xml:space="preserve">
<g>
	<path style="fill:#1E0478;" d="M447.961,395.946v90.808c0,13.918-11.328,25.246-25.246,25.246H89.285
		c-13.918,0-25.246-11.329-25.246-25.246v-90.808c0-0.024,0.012-0.06,0.012-0.096c0-0.024-0.012-0.06-0.012-0.084
		c0-6.521,3.548-12.551,9.243-15.716c5.706-3.177,12.683-2.997,18.233,0.432l35.436,21.998c5.586,3.476,12.551,3.476,18.15,0
		l29.19-18.114c13.402-8.32,30.041-8.32,43.444,0l29.19,18.114c5.598,3.476,12.551,3.476,18.15,0l29.19-18.114
		c13.402-8.32,30.042-8.32,43.444,0l29.19,18.114c5.598,3.476,12.551,3.476,18.15,0l35.448-21.998
		c5.538-3.44,12.515-3.596,18.221-0.432c5.694,3.165,9.243,9.195,9.243,15.716c0,0.024-0.012,0.06-0.012,0.084
		C447.949,395.886,447.961,395.922,447.961,395.946z M423.985,486.754v-80.211l-26.289,16.303c-13.39,8.32-30.041,8.32-43.432,0
		l-29.202-18.114c-5.598-3.476-12.551-3.476-18.15,0l-29.19,18.114c-6.701,4.16-14.218,6.246-21.722,6.246
		c-7.504,0-15.021-2.086-21.722-6.246l-29.19-18.114c-5.598-3.476-12.551-3.476-18.15,0l-29.202,18.114
		c-13.39,8.32-30.029,8.32-43.432,0l-26.289-16.303v80.211c0,0.695,0.575,1.271,1.271,1.271h333.429
		C423.41,488.024,423.985,487.449,423.985,486.754z"/>
	<path style="fill:#1E0478;" d="M447.961,103.755v220.84c0,0.108-0.012,0.216-0.024,0.324c-0.156,6.054-3.297,11.556-8.475,14.769
		l-41.358,25.666c-13.654,8.475-30.605,8.475-44.247,0l-28.387-17.61c-5.85-3.632-13.115-3.632-18.965,0l-28.375,17.61
		c-6.821,4.244-14.481,6.354-22.13,6.354c-7.648,0-15.296-2.11-22.13-6.354l-28.375-17.61c-5.85-3.632-13.115-3.632-18.965,0
		l-28.387,17.61c-13.642,8.475-30.605,8.475-44.247,0l-41.358-25.666c-5.179-3.213-8.32-8.715-8.475-14.769
		c-0.012-0.108-0.024-0.216-0.024-0.324V25.246C64.039,11.328,75.367,0,89.285,0h254.921c3.345,0,6.378,1.379,8.547,3.596
		l91.695,91.683c2.206,2.218,3.405,5.155,3.488,8.164C447.949,103.551,447.961,103.647,447.961,103.755z M423.985,321.082V115.742
		h-66.532c-13.918,0-25.234-11.317-25.234-25.234V23.976H89.285c-0.695,0-1.271,0.575-1.271,1.271v295.836l38.529,23.904
		c5.838,3.632,13.115,3.632,18.965,0l28.375-17.61c13.654-8.475,30.605-8.475,44.259,0l28.375,17.61
		c5.85,3.632,13.115,3.632,18.965,0l28.375-17.61c13.654-8.475,30.605-8.475,44.259,0l28.375,17.61
		c5.85,3.632,13.127,3.632,18.965,0L423.985,321.082z M357.453,91.767h49.57l-50.828-50.828v49.57
		C356.194,91.203,356.758,91.767,357.453,91.767z"/>
</g>
<g>
	<path style="fill:#94E7EF;" d="M423.985,406.543v80.211c0,0.695-0.575,1.271-1.271,1.271H89.285c-0.695,0-1.271-0.575-1.271-1.271
		v-80.211l26.289,16.303c13.402,8.32,30.041,8.32,43.432,0l29.202-18.114c5.598-3.476,12.551-3.476,18.15,0l29.19,18.114
		c6.701,4.16,14.218,6.246,21.722,6.246c7.504,0,15.021-2.086,21.722-6.246l29.19-18.114c5.598-3.476,12.551-3.476,18.15,0
		l29.202,18.114c13.39,8.32,30.041,8.32,43.432,0L423.985,406.543z"/>
	<path style="fill:#94E7EF;" d="M423.985,115.742v205.339l-38.529,23.904c-5.838,3.632-13.115,3.632-18.965,0l-28.375-17.61
		c-13.654-8.475-30.605-8.475-44.259,0l-28.375,17.61c-5.85,3.632-13.115,3.632-18.965,0l-28.375-17.61
		c-13.654-8.475-30.605-8.475-44.259,0l-28.375,17.61c-5.85,3.632-13.127,3.632-18.965,0l-38.529-23.904V25.246
		c0-0.695,0.575-1.271,1.271-1.271h242.933v66.532c0,13.918,11.317,25.234,25.234,25.234H423.985z M374.068,176.005
		c0-6.617-5.359-11.988-11.988-11.988H149.92c-6.629,0-11.988,5.371-11.988,11.988s5.359,11.988,11.988,11.988H362.08
		C368.71,187.993,374.068,182.623,374.068,176.005z M374.068,248.34c0-6.617-5.359-11.988-11.988-11.988H149.92
		c-6.629,0-11.988,5.371-11.988,11.988c0,6.629,5.359,11.988,11.988,11.988H362.08C368.71,260.328,374.068,254.969,374.068,248.34z"
		/>
	<path style="fill:#94E7EF;" d="M407.023,91.767h-49.57c-0.695,0-1.259-0.563-1.259-1.259v-49.57L407.023,91.767z"/>
</g>
<g>
	<path style="fill:#1E0478;" d="M362.08,164.017c6.629,0,11.988,5.371,11.988,11.988s-5.359,11.988-11.988,11.988H149.92
		c-6.629,0-11.988-5.371-11.988-11.988s5.359-11.988,11.988-11.988H362.08z"/>
	<path style="fill:#1E0478;" d="M362.08,236.352c6.629,0,11.988,5.371,11.988,11.988c0,6.629-5.359,11.988-11.988,11.988H149.92
		c-6.629,0-11.988-5.359-11.988-11.988c0-6.617,5.359-11.988,11.988-11.988H362.08z"/>
</g>
</svg>